<!--?xml version="1.0" encoding="utf-8"?--><svg xmlns="http://www.w3.org/2000/svg" x="0" y="0" version="1.1" xmlns:xlink="http://www.w3.org/1999/xlink" viewBox="0 0 612 792" xml:space="preserve"><path fill="none" stroke="#00AEEF" stroke-width="3" stroke-miterlimit="10" d="M362.79688 391.35156v-98.04004h9.28906v-4.47168c0-2.29248-.57617-4.4131-1.7207-6.36426-1.14844-1.94824-3.67188-2.92383-7.56836-2.92383-6.30664 0-12.87305.74707-19.69336 2.23584-6.82422 1.4917-13.50195 3.95604-20.03906 7.396-6.53516 3.43993-12.72656 7.97118-18.5752 13.58788-5.84863 5.61963-10.98145 12.6421-15.39355 21.0703-4.416 8.42774-7.9126 18.34718-10.49267 29.75587-2.479 10.96533-3.7539 23.56152-3.8506 37.7539h-40.2666v-43c-.1157-.9165-.5161-1.71972-1.2041-2.4082-.68798-.68798-1.4917-1.03173-2.4082-1.03173h-8.42772c-.91942 0-1.7202.34375-2.4082 1.03174-.68798.68848-1.03173 1.4917-1.03173 2.4082v43h-55.04004c0-15.47998 1.3462-29.2964 4.042-41.45215 2.69286-12.15282 6.64892-22.416 11.86767-30.7876 5.2168-8.36913 11.6372-14.7627 19.26416-19.1782 7.6245-4.4131 16.3672-6.62208 26.22998-6.62208h9.2881v-4.47168c0-2.29248-.5752-4.4131-1.72022-6.36426-1.14746-1.94824-3.6709-2.92383-7.56787-2.92383-9.51904 0-18.86328 1.9214-28.03613 5.76172-9.1748 3.84326-17.37158 10.0918-24.5957 18.74805-7.22412 8.65918-13.07227 20.01123-17.54395 34.05615-4.47217 14.04736-6.708 31.21777-6.708 51.51416 0 2.9834.40038 5.3916 1.2041 7.22363.80077 1.83594 1.8916 3.2412 3.26757 4.21387 1.37598.9756 3.01025 1.60742 4.90234 1.89258 1.8921.28712 3.92627.4297 6.10596.4297h54.86768c-.23096 8.94434-.9458 16.02246-2.1499 21.2422-1.2041 5.2158-3.03955 9.20214-5.5039 11.9541-2.4673 2.75194-5.563 4.499-9.2881 5.24608-3.72754.74414-8.16992 1.1172-13.33008 1.1172h-9.63184v1.89257c0 4.2412.688 7.28027 2.06396 9.1162 1.37598 1.83204 3.89697 2.75196 7.56787 2.75196 7.79688 0 14.53418-.8037 20.21045-2.4082 5.67578-1.6074 10.34668-4.416 14.01758-8.42772 3.66846-4.01563 6.4502-9.45996 8.3423-16.34082 1.89208-6.87988 2.95067-15.59473 3.18212-26.14355H280.75344c2.52002 0 4.72998-.6289 6.62158-1.8916 1.8926-1.26073 2.8379-4.06933 2.8379-8.42772 0-7.9121.4004-15.2495 1.2041-22.0166.80176-6.76465 2.00488-13.12842 3.6123-19.0923h52.2871v41.1089c0 2.1787.28517 3.9287.86134 5.24512.57227 1.31934 1.3457 2.35156 2.32227 3.09668.97267.74707 2.08985 1.2627 3.35353 1.54785 1.25977.2871 2.52148.4297 3.7832.4297h53.83594c1.49023 0 2.95117-.1719 4.38672-.51564 1.43163-.34474 2.72265-.9463 3.86913-1.80665 1.14648-.85938 2.06445-2.06348 2.75195-3.61133.68945-1.54883 1.0332-3.583 1.0332-6.10645h-60.7168zm-15.48047-52.28808h-47.9873c5.16017-12.72803 11.9248-22.67432 20.2959-29.8418 8.36915-7.16504 17.60157-11.89502 27.69142-14.18994v44.03174z" class="CSgYvweZ_0"></path><style>.CSgYvweZ_0{stroke-dasharray:1555 1557;stroke-dashoffset:1556;animation:CSgYvweZ_draw 2000ms linear 0ms forwards;}@keyframes CSgYvweZ_draw{100%{stroke-dashoffset:0;}}@keyframes CSgYvweZ_fade{0%{stroke-opacity:1;}94.44444444444444%{stroke-opacity:1;}100%{stroke-opacity:0;}}</style></svg>