<!--?xml version="1.0" encoding="utf-8"?-->
<!-- Generator: Adobe Illustrator 19.0.0, SVG Export Plug-In . SVG Version: 6.00 Build 0)  -->
<svg version="1.1" id="Layer_1" xmlns="http://www.w3.org/2000/svg" xmlns:xlink="http://www.w3.org/1999/xlink" x="0px" y="0px" viewBox="0 0 282.02789 184.1601" enable-background="new 0 0 282.02789 184.1601" xml:space="preserve">
<g>
	<g>
		<path fill="none" stroke="#00AEEF" stroke-width="7" stroke-miterlimit="10" d="M276.55682,115.29975h-56.85316
			c-1.04523,0-1.89258-0.84729-1.89258-1.89258V19.15229c0-1.04529,0.84735-1.89264,1.89258-1.89264h5.50385
			c1.04523,0,1.89258-0.84729,1.89258-1.89258v-2.5791c0-2.29242-0.57611-4.41296-1.7207-6.3642
			c-1.14838-1.9483-3.67181-2.92377-7.5683-2.92377c-6.3067,0-12.87311,0.74695-19.69336,2.23578
			c-6.82422,1.4917-13.50195,3.95612-20.039,7.396c-6.53522,3.43988-12.72662,7.97119-18.57526,13.58789
			c-5.84869,5.61963-10.98145,12.64209-15.39355,21.07031c-4.41602,8.42767-7.9126,18.34716-10.49274,29.75592
			c-2.47888,10.96545-3.75378,23.56134-3.85065,37.75385H91.39256c-1.04523,0-1.89258-0.84729-1.89258-1.89258V72.29975
			c-0.11566-0.91644-0.51611-1.71979-1.2041-2.40814c-0.68787-0.68805-1.4917-1.0318-2.4082-1.0318h-8.42767
			c-0.91943,0-1.72021,0.34375-2.4082,1.0318c-0.68799,0.68835-1.03174,1.4917-1.03174,2.40814v41.10742
			c0,1.04529-0.84729,1.89258-1.89258,1.89258H20.88451c-1.04993,0-1.90521-0.86078-1.89758-1.91064
			c0.10663-14.70844,1.45068-27.88806,4.0351-39.5415c2.69287-12.15283,6.64886-22.41601,11.86768-30.78759
			c5.2168-8.36914,11.63721-14.7627,19.2641-19.17822c7.62457-4.41309,16.36718-6.62213,26.22998-6.62213h7.39551
			c1.04529,0,1.89264-0.84729,1.89264-1.89258v-2.5791c0-2.29242-0.57526-4.41296-1.72021-6.3642
			c-1.14752-1.9483-3.6709-2.92377-7.56793-2.92377c-9.51898,0-18.86328,1.92126-28.03607,5.76166
			c-9.1748,3.8432-17.37158,10.0918-24.5957,18.74799C20.52788,36.6689,14.67968,48.02101,10.208,62.06587
			c-4.47211,14.0473-6.70801,31.21771-6.70801,51.5141c0,2.9834,0.40039,5.3916,1.2041,7.22369
			c0.80078,1.83594,1.8916,3.24121,3.26764,4.21381c1.37598,0.97565,3.01025,1.60754,4.90234,1.89264
			c1.89215,0.28705,3.92621,0.42969,6.10596,0.42969h52.9165c1.07434,0,1.92902,0.89417,1.89148,1.96784
			c-0.28052,8.02075-0.97583,14.44348-2.09021,19.27435c-1.2041,5.21582-3.03961,9.20209-5.50391,11.9541
			c-2.46728,2.75189-5.56298,4.49902-9.28808,5.24609c-3.72754,0.74408-8.16992,1.11719-13.33014,1.11719h-7.7392
			c-1.04523,0-1.89258,0.84735-1.89258,1.89264c0,4.24121,0.68799,7.28015,2.06403,9.11621
			c1.37585,1.83197,3.89685,2.75189,7.56775,2.75189c7.79694,0,14.53424-0.80371,20.21051-2.4082
			c5.67584-1.60742,10.34674-4.41602,14.01764-8.42773c3.6684-4.01556,6.45007-9.45996,8.34216-16.34076
			c1.7807-6.47491,2.82318-14.57513,3.13275-24.29974c0.03259-1.02417,0.8653-1.84388,1.89001-1.84388h40.47144h0.8598h3.26758
			c2.52002,0,4.73004-0.62891,6.62164-1.8916c1.89258-1.26068,2.83789-4.06934,2.83789-8.42773
			c0-7.91205,0.40039-15.24945,1.2041-22.0166c0.73871-6.23254,1.81812-12.12482,3.24048-17.67749
			c0.21429-0.83655,0.9754-1.41479,1.83899-1.41479h48.92731c1.04529,0,1.89264,0.84735,1.89264,1.89264v39.21625
			c0,2.17871,0.28516,3.92871,0.86127,5.24512c0.57233,1.31934,1.3457,2.3515,2.32233,3.09668
			c0.97266,0.74701,2.08978,1.26276,3.35352,1.54785c1.25977,0.28705,2.52148,0.42969,3.78314,0.42969h53.83601
			c1.49023,0,2.95111-0.17194,4.38672-0.51563c1.43164-0.34467,2.7226-0.94629,3.86908-1.8067
			c1.14655-0.85925,2.06451-2.06335,2.75201-3.61127c0.49542-1.11304,0.81238-2.47675,0.95154-4.09259
			C278.53998,116.22504,277.64941,115.29975,276.55682,115.29975z M202.33061,61.11909c0,1.04523-0.84735,1.89258-1.89264,1.89258
			h-43.24133c-1.37164,0-2.27893-1.41241-1.7298-2.66931c5.00543-11.45728,11.39569-20.51392,19.17236-27.17249
			c7.69769-6.59033,16.12585-11.12042,25.27972-13.59064c1.21301-0.32739,2.41168,0.56799,2.41168,1.8244V61.11909z" class="EpEwfspp_0"></path>
	</g>
</g>
<g>
</g>
<g>
</g>
<g>
</g>
<g>
</g>
<g>
</g>
<g>
</g>
<style>.EpEwfspp_0{stroke-dasharray:1541 1543;stroke-dashoffset:1542;animation:EpEwfspp_draw 2000ms linear 0ms forwards;}@keyframes EpEwfspp_draw{100%{stroke-dashoffset:0;}}@keyframes EpEwfspp_fade{0%{stroke-opacity:1;}94.44444444444444%{stroke-opacity:1;}100%{stroke-opacity:0;}}</style></svg>
