<!--?xml version="1.0" encoding="utf-8"?-->
<!-- Generator: Adobe Illustrator 16.0.0, SVG Export Plug-In . SVG Version: 6.00 Build 0)  -->

<svg version="1.1" id="Layer_1" xmlns="http://www.w3.org/2000/svg" xmlns:xlink="http://www.w3.org/1999/xlink" x="0px" y="0px" width="612px" height="792px" viewBox="0 0 612 792" enable-background="new 0 0 612 792" xml:space="preserve">
<g>
		<path fill="none" stroke="#00AEEF" stroke-width="3" stroke-miterlimit="10" d="M362.79688,391.35156v-98.04004h9.28906v-4.47168
			c0-2.29248-0.57617-4.41309-1.7207-6.36426c-1.14844-1.94824-3.67188-2.92383-7.56836-2.92383
			c-6.30664,0-12.87305,0.74707-19.69336,2.23584c-6.82422,1.4917-13.50195,3.95605-20.03906,7.396
			c-6.53516,3.43994-12.72656,7.97119-18.5752,13.58789c-5.84863,5.61963-10.98145,12.64209-15.39355,21.07031
			c-4.41602,8.42773-7.9126,18.34717-10.49268,29.75586c-2.479,10.96533-3.75391,23.56152-3.85059,37.75391h-40.2666v-43
			c-0.11572-0.9165-0.51611-1.71973-1.2041-2.4082c-0.68799-0.68799-1.4917-1.03174-2.4082-1.03174h-8.42773
			c-0.91943,0-1.72021,0.34375-2.4082,1.03174c-0.68799,0.68848-1.03174,1.4917-1.03174,2.4082v43h-55.04004
			c0-15.47998,1.34619-29.29639,4.04199-41.45215c2.69287-12.15283,6.64893-22.41602,11.86768-30.7876
			c5.2168-8.36914,11.63721-14.7627,19.26416-19.17822c7.62451-4.41309,16.36719-6.62207,26.22998-6.62207h9.28809v-4.47168
			c0-2.29248-0.5752-4.41309-1.72021-6.36426c-1.14746-1.94824-3.6709-2.92383-7.56787-2.92383
			c-9.51904,0-18.86328,1.92139-28.03613,5.76172c-9.1748,3.84326-17.37158,10.0918-24.5957,18.74805
			c-7.22412,8.65918-13.07227,20.01123-17.54395,34.05615c-4.47217,14.04736-6.70801,31.21777-6.70801,51.51416
			c0,2.9834,0.40039,5.3916,1.2041,7.22363c0.80078,1.83594,1.8916,3.24121,3.26758,4.21387
			c1.37598,0.97559,3.01025,1.60742,4.90234,1.89258c1.89209,0.28711,3.92627,0.42969,6.10596,0.42969h54.86768
			c-0.23096,8.94434-0.9458,16.02246-2.1499,21.24219c-1.2041,5.21582-3.03955,9.20215-5.50391,11.9541
			c-2.46729,2.75195-5.56299,4.49902-9.28809,5.24609c-3.72754,0.74414-8.16992,1.11719-13.33008,1.11719h-9.63184v1.89258
			c0,4.24121,0.68799,7.28027,2.06396,9.11621c1.37598,1.83203,3.89697,2.75195,7.56787,2.75195
			c7.79688,0,14.53418-0.80371,20.21045-2.4082c5.67578-1.60742,10.34668-4.41602,14.01758-8.42773
			c3.66846-4.01563,6.4502-9.45996,8.34229-16.34082c1.89209-6.87988,2.95068-15.59473,3.18213-26.14355h40.41943h2.75244h3.26758
			c2.52002,0,4.72998-0.62891,6.62158-1.8916c1.89258-1.26074,2.83789-4.06934,2.83789-8.42773
			c0-7.91211,0.40039-15.24951,1.2041-22.0166c0.80176-6.76465,2.00488-13.12842,3.6123-19.09229h52.28711v41.10889
			c0,2.17871,0.28516,3.92871,0.86133,5.24512c0.57227,1.31934,1.3457,2.35156,2.32227,3.09668
			c0.97266,0.74707,2.08984,1.2627,3.35352,1.54785c1.25977,0.28711,2.52148,0.42969,3.7832,0.42969h53.83594
			c1.49023,0,2.95117-0.17188,4.38672-0.51563c1.43164-0.34473,2.72266-0.94629,3.86914-1.80664
			c1.14648-0.85938,2.06445-2.06348,2.75195-3.61133c0.68945-1.54883,1.0332-3.58301,1.0332-6.10645H362.79688z
			 M347.31641,339.06348h-47.9873c5.16016-12.72803,11.9248-22.67432,20.2959-29.8418
			c8.36914-7.16504,17.60156-11.89502,27.69141-14.18994V339.06348z" class="vHxfzXJt_0"></path>
	</g>
<style>.vHxfzXJt_0{stroke-dasharray:1555 1557;stroke-dashoffset:1556;animation:vHxfzXJt_draw 2000ms linear 0ms forwards;}@keyframes vHxfzXJt_draw{100%{stroke-dashoffset:0;}}@keyframes vHxfzXJt_fade{0%{stroke-opacity:1;}94.44444444444444%{stroke-opacity:1;}100%{stroke-opacity:0;}}</style></svg>
