<?xml version="1.0" encoding="utf-8"?>
<!-- Generator: Adobe Illustrator 19.0.0, SVG Export Plug-In . SVG Version: 6.00 Build 0)  -->
<svg version="1.1" id="Layer_1" xmlns="http://www.w3.org/2000/svg" xmlns:xlink="http://www.w3.org/1999/xlink" x="0px" y="0px"
	 viewBox="-185.1 359.5 153.9 78.3" style="enable-background:new -185.1 359.5 153.9 78.3;" xml:space="preserve">
<style type="text/css">
	.st0{fill:#FFFFFF;}
</style>
<g id="Layer_1_1_">
	<path class="st0" d="M-67.3,361.8c-0.1,0-0.2,0-0.2,0h-2.3c-0.3,0-29.4-2.1-41.1,36.3c-10.2,33.6-33.9,32.1-35.1,32.1h-1.4
		c-0.1,0-0.2,0-0.3,0c-16.7-1.3-29.5-14.7-29.5-31.5c0-17.1,13.8-31.2,31.2-31.2c9.6,0,18.7,4.5,24.5,12.2c0.9,1.2,2.7,1.5,3.9,0.6
		l0.1-0.1c1.5-0.9,1.8-2.9,0.7-4.3c-7-9.2-17.8-14.4-29.3-14.4c-20.7,0-37.2,16.8-37.2,37.2c0,19.8,15.6,36.3,35.4,36.9
		c0.6,0,1.2,0,1.5,0c0,0,0.3,0,0.9,0c5.1,0,29.7-1.8,40.2-36.3c10.2-33.6,33.9-32.1,35.1-32.1h2.2c0.1,0,0.3,0,0.4,0
		c15.8,1.9,28.3,15.3,28.3,31.4c0,17.1-13.8,31.2-31.2,31.2c-9.6,0-18.7-4.5-24.5-12.2c-0.9-1.2-2.7-1.5-3.9-0.6l-0.1,0.1
		c-1.5,0.9-1.8,2.9-0.7,4.3c7,9.2,17.8,14.4,29.3,14.4c20.7,0,37.2-16.8,37.2-37.2C-33.2,379.6-48.1,363.1-67.3,361.8z"/>
</g>
<g id="Layer_2">
	<g>
		<path class="st0" d="M-38.2,399.5L-38.2,399.5c0,1.4-1.9,2.5-4.1,2.5h-96.1c-2.3,0-4.1-1.1-4.1-2.5l0,0c0-1.4,1.9-2.5,4.1-2.5
			h96.1C-40.1,397-38.2,398.2-38.2,399.5z"/>
	</g>
</g>
</svg>
