<?xml version="1.0" encoding="utf-8"?>
<!-- Generator: Adobe Illustrator 19.0.0, SVG Export Plug-In . SVG Version: 6.00 Build 0)  -->
<svg version="1.1" id="Layer_1" xmlns="http://www.w3.org/2000/svg" xmlns:xlink="http://www.w3.org/1999/xlink" x="0px" y="0px"
	 viewBox="0 0 450 450" style="enable-background:new 0 0 450 450;" xml:space="preserve">
<g id="XMLID_17_">
	<path id="XMLID_50_" d="M293.8,10.7c-8.9-2.9-18.1-5.2-27.5-6.9v20.4v30.8v28.5v127.9v27.4v127.9v28.5c9.5-2.3,18.7-5.4,27.5-9.1
		v-30.5V238.7h78.1c-2.8,29.9-14.4,57.2-32.3,79.2c6.2,6.8,12.5,13.6,18.7,20.5c23.3-27.3,38.3-61.8,41.2-99.7
		c0.4-4.5,0.5-9.1,0.5-13.7s-0.2-9.2-0.5-13.7C394.3,145,352.2,89,293.8,64V31.8C373.2,60.1,430,135.9,430,225
		c0,108.6-84.4,197.5-191.3,204.5v-30.1v-27.6V238.7v-27.4V78.1V50.5V20.5v-20C234.2,0.2,229.6,0,225,0s-9.2,0.2-13.8,0.4v20v30.1
		v27.6v133.2v27.4v133.2v27.6v30.1C104.4,422.5,20,333.6,20,225c0-89.1,56.8-164.9,136.3-193.2V64C93.8,90.7,50,152.8,50,225
		s43.8,134.3,106.3,161c8.8,3.8,18,6.8,27.5,9.1v-28.5V238.7v-27.4h-27.5H110v27.4h46.3v116.8c-46.8-24.7-78.8-73.9-78.8-130.5
		c0-56.6,31.9-105.8,78.8-130.5v68.2h27.5V83.4V54.9V24.2V3.8c-9.4,1.7-18.6,4.1-27.5,6.9C65.6,39.8,0,124.7,0,225
		c0,119.6,93.4,217.5,211.3,224.6c4.5,0.3,9.1,0.4,13.8,0.4s9.2-0.2,13.8-0.4C356.6,442.5,450,344.6,450,225
		C450,124.7,384.4,39.8,293.8,10.7z M371.9,211.3h-78.1V94.5C336.8,117.2,367.2,160.5,371.9,211.3z"/>
</g>
<g id="XMLID_9_">
</g>
<g id="XMLID_11_">
</g>
<g id="XMLID_15_">
</g>
<g id="XMLID_18_">
</g>
<g id="XMLID_19_">
</g>
<g id="XMLID_20_">
</g>
</svg>
